<svg width="32" height="33" viewBox="0 0 32 33" fill="none" xmlns="http://www.w3.org/2000/svg">
<path d="M22.8702 20.5108H21.4248L20.9125 20.0234C22.7055 17.9654 23.785 15.2937 23.785 12.3873C23.785 5.90652 18.4608 0.65332 11.8925 0.65332C5.32419 0.65332 0 5.90652 0 12.3873C0 18.868 5.32419 24.1212 11.8925 24.1212C14.8382 24.1212 17.546 23.0561 19.6318 21.287L20.1258 21.7925V23.2186L29.2739 32.2267L32 29.5369L22.8702 20.5108V20.5108ZM11.8925 20.5108C7.33676 20.5108 3.65923 16.8823 3.65923 12.3873C3.65923 7.89226 7.33676 4.26376 11.8925 4.26376C16.4483 4.26376 20.1258 7.89226 20.1258 12.3873C20.1258 16.8823 16.4483 20.5108 11.8925 20.5108Z" fill="#D5D5D5" fill-opacity="0.72"/>
</svg>
